<?xml version="1.0" standalone="no"?><!DOCTYPE svg PUBLIC "-//W3C//DTD SVG 1.1//EN" "http://www.w3.org/Graphics/SVG/1.1/DTD/svg11.dtd"><svg t="1580578194201" class="icon" viewBox="0 0 1024 1024" version="1.1" xmlns="http://www.w3.org/2000/svg" p-id="2972" xmlns:xlink="http://www.w3.org/1999/xlink" width="128" height="128"><defs><style type="text/css"></style></defs><path d="M917 467c-24.9 0-45 20.1-45 45v300c0 33.1-26.9 60-60 60H212c-33.1 0-60-26.9-60-60V212c0-33.1 26.9-60 60-60h300c24.9 0 45-20.1 45-45s-20.1-45-45-45H182c-66.3 0-120 53.7-120 120v660c0 66.3 53.7 120 120 120h660c66.3 0 120-53.7 120-120V512c0-24.9-20.1-45-45-45z" fill="" p-id="2973"></path><path d="M356.2 682.8c17.5 17.5 46.1 17.5 63.6 0l487.9-487.9c17.5-17.5 17.5-46.1 0-63.6s-46.1-17.5-63.6 0L356.2 619.1c-17.5 17.5-17.5 46.2 0 63.7z" fill="" p-id="2974"></path></svg>